<svg xmlns="http://www.w3.org/2000/svg" xmlns:xlink="http://www.w3.org/1999/xlink" width="475" zoomAndPan="magnify" viewBox="0 0 356.25 236.249991" height="315" preserveAspectRatio="xMidYMid meet" version="1.2"><defs><clipPath id="a50b0cca57"><path d="M 176 101 L 214 101 L 214 147.871094 L 176 147.871094 Z M 176 101 "/></clipPath><clipPath id="14368eeb67"><path d="M 201 87.3125 L 252 87.3125 L 252 136 L 201 136 Z M 201 87.3125 "/></clipPath><clipPath id="33b05d7d66"><path d="M 262 87.3125 L 314 87.3125 L 314 136 L 262 136 Z M 262 87.3125 "/></clipPath><clipPath id="d08185b9d8"><path d="M 35 87.3125 L 86 87.3125 L 86 136 L 35 136 Z M 35 87.3125 "/></clipPath><clipPath id="276ccf23d5"><path d="M 254 87.3125 L 261 87.3125 L 261 136 L 254 136 Z M 254 87.3125 "/></clipPath></defs><g id="20d7bd737b"><path style=" stroke:none;fill-rule:nonzero;fill:#c8202f;fill-opacity:1;" d="M 104.066406 135.628906 C 93.289062 135.628906 84.90625 128.121094 84.90625 118.472656 C 84.90625 108.824219 93.324219 101.210938 104.066406 101.210938 C 114.8125 101.210938 123.226562 108.8125 123.226562 118.472656 C 123.226562 128.132812 114.800781 135.628906 104.066406 135.628906 Z M 104.066406 108.113281 C 97.246094 108.113281 91.867188 112.648438 91.867188 118.441406 C 91.867188 124.230469 97.257812 128.691406 104.066406 128.691406 C 110.878906 128.691406 116.253906 124.21875 116.253906 118.441406 C 116.253906 112.660156 110.867188 108.113281 104.066406 108.113281 Z M 104.066406 108.113281 "/><path style=" stroke:none;fill-rule:nonzero;fill:#c8202f;fill-opacity:1;" d="M 172.585938 135.628906 C 172.121094 135.621094 171.664062 135.574219 171.210938 135.476562 C 170.757812 135.382812 170.316406 135.246094 169.890625 135.066406 C 169.464844 134.882812 169.0625 134.664062 168.679688 134.40625 C 168.296875 134.144531 167.941406 133.851562 167.617188 133.519531 C 167.292969 133.191406 167.003906 132.835938 166.753906 132.449219 C 166.5 132.0625 166.285156 131.65625 166.113281 131.230469 C 165.9375 130.804688 165.808594 130.363281 165.722656 129.910156 C 165.636719 129.457031 165.597656 129 165.601562 128.539062 L 165.601562 114.257812 C 165.570312 113.84375 165.503906 113.4375 165.398438 113.035156 C 165.292969 112.632812 165.148438 112.246094 164.96875 111.871094 C 164.789062 111.496094 164.578125 111.144531 164.332031 110.808594 C 164.082031 110.472656 163.808594 110.164062 163.503906 109.882812 C 163.199219 109.597656 162.867188 109.347656 162.515625 109.125 C 162.164062 108.902344 161.792969 108.714844 161.40625 108.566406 C 161.015625 108.414062 160.617188 108.296875 160.207031 108.21875 C 159.796875 108.144531 159.386719 108.105469 158.96875 108.105469 C 158.550781 108.105469 158.136719 108.144531 157.726562 108.21875 C 157.316406 108.296875 156.917969 108.414062 156.53125 108.566406 C 156.144531 108.714844 155.773438 108.902344 155.417969 109.125 C 155.066406 109.347656 154.738281 109.597656 154.433594 109.882812 C 154.128906 110.164062 153.851562 110.472656 153.605469 110.808594 C 153.359375 111.144531 153.144531 111.496094 152.964844 111.871094 C 152.785156 112.246094 152.644531 112.632812 152.539062 113.035156 C 152.433594 113.4375 152.363281 113.84375 152.335938 114.257812 L 152.335938 135.628906 C 151.878906 135.628906 151.425781 135.585938 150.976562 135.496094 C 150.527344 135.40625 150.089844 135.277344 149.667969 135.101562 C 149.242188 134.929688 148.84375 134.714844 148.460938 134.460938 C 148.082031 134.207031 147.730469 133.921875 147.40625 133.597656 C 147.082031 133.277344 146.792969 132.925781 146.539062 132.546875 C 146.285156 132.167969 146.070312 131.765625 145.898438 131.347656 C 145.722656 130.925781 145.59375 130.492188 145.503906 130.042969 C 145.414062 129.597656 145.371094 129.144531 145.375 128.691406 L 145.375 114.257812 C 145.339844 113.847656 145.269531 113.441406 145.160156 113.042969 C 145.050781 112.644531 144.902344 112.257812 144.722656 111.886719 C 144.539062 111.515625 144.324219 111.164062 144.078125 110.832031 C 143.828125 110.5 143.554688 110.195312 143.246094 109.914062 C 142.941406 109.632812 142.613281 109.382812 142.261719 109.164062 C 141.910156 108.945312 141.539062 108.761719 141.152344 108.609375 C 140.765625 108.460938 140.367188 108.347656 139.960938 108.269531 C 139.550781 108.191406 139.140625 108.15625 138.722656 108.15625 C 138.308594 108.15625 137.898438 108.191406 137.488281 108.269531 C 137.082031 108.347656 136.683594 108.460938 136.296875 108.609375 C 135.910156 108.761719 135.539062 108.945312 135.1875 109.164062 C 134.835938 109.382812 134.507812 109.632812 134.199219 109.914062 C 133.894531 110.195312 133.617188 110.5 133.371094 110.832031 C 133.125 111.164062 132.910156 111.515625 132.726562 111.886719 C 132.542969 112.257812 132.398438 112.644531 132.289062 113.042969 C 132.179688 113.441406 132.109375 113.847656 132.074219 114.257812 L 132.074219 128.617188 C 132.074219 129.070312 132.03125 129.523438 131.941406 129.972656 C 131.851562 130.421875 131.71875 130.855469 131.542969 131.277344 C 131.371094 131.699219 131.15625 132.101562 130.902344 132.480469 C 130.648438 132.863281 130.359375 133.214844 130.039062 133.539062 C 129.714844 133.867188 129.363281 134.15625 128.984375 134.414062 C 128.605469 134.667969 128.203125 134.886719 127.78125 135.066406 C 127.359375 135.246094 126.925781 135.382812 126.476562 135.476562 C 126.027344 135.570312 125.574219 135.621094 125.113281 135.628906 L 125.113281 114.257812 C 125.128906 113.386719 125.226562 112.523438 125.410156 111.667969 C 125.59375 110.816406 125.859375 109.988281 126.210938 109.1875 C 126.558594 108.386719 126.980469 107.625 127.480469 106.910156 C 127.976562 106.191406 128.542969 105.527344 129.171875 104.921875 C 129.800781 104.3125 130.484375 103.773438 131.222656 103.300781 C 131.960938 102.824219 132.738281 102.429688 133.550781 102.109375 C 134.367188 101.785156 135.207031 101.546875 136.070312 101.390625 C 136.933594 101.234375 137.804688 101.164062 138.679688 101.179688 C 140.601562 101.152344 142.445312 101.511719 144.214844 102.257812 C 145.984375 103.003906 147.527344 104.074219 148.84375 105.464844 C 150.148438 104.082031 151.675781 103.015625 153.429688 102.269531 C 155.183594 101.523438 157.011719 101.160156 158.917969 101.179688 C 159.800781 101.160156 160.671875 101.226562 161.539062 101.382812 C 162.40625 101.535156 163.25 101.773438 164.070312 102.089844 C 164.890625 102.410156 165.671875 102.804688 166.414062 103.277344 C 167.15625 103.75 167.84375 104.289062 168.480469 104.898438 C 169.113281 105.507812 169.683594 106.167969 170.183594 106.886719 C 170.6875 107.609375 171.117188 108.367188 171.46875 109.171875 C 171.820312 109.976562 172.089844 110.804688 172.277344 111.660156 C 172.464844 112.515625 172.566406 113.382812 172.585938 114.257812 Z M 172.585938 135.628906 "/><g clip-rule="nonzero" clip-path="url(#a50b0cca57)"><path style=" stroke:none;fill-rule:nonzero;fill:#c8202f;fill-opacity:1;" d="M 195.214844 135.550781 C 193.476562 135.574219 191.753906 135.402344 190.054688 135.039062 C 189.625 134.914062 189.210938 134.75 188.8125 134.546875 C 188.414062 134.34375 188.039062 134.105469 187.6875 133.828125 C 187.335938 133.554688 187.015625 133.246094 186.722656 132.910156 C 186.429688 132.574219 186.175781 132.210938 185.953125 131.824219 C 185.734375 131.4375 185.550781 131.03125 185.410156 130.609375 C 185.269531 130.1875 185.167969 129.757812 185.109375 129.316406 C 185.050781 128.875 185.039062 128.429688 185.066406 127.988281 C 185.09375 127.542969 185.164062 127.105469 185.277344 126.675781 C 185.394531 126.253906 185.542969 125.839844 185.722656 125.441406 L 185.722656 125.378906 C 187.671875 127.523438 190.882812 128.59375 195.160156 128.59375 C 201.53125 128.59375 206.550781 124.113281 206.550781 118.484375 C 206.550781 112.628906 201.53125 108.027344 195.160156 108.027344 C 189.105469 108.027344 183.113281 111.332031 183.113281 118.621094 L 183.113281 141.136719 C 183.105469 141.589844 183.054688 142.03125 182.957031 142.472656 C 182.863281 142.914062 182.726562 143.339844 182.546875 143.75 C 182.367188 144.164062 182.148438 144.554688 181.894531 144.925781 C 181.636719 145.296875 181.347656 145.640625 181.023438 145.953125 C 180.699219 146.265625 180.347656 146.546875 179.96875 146.792969 C 179.589844 147.035156 179.191406 147.242188 178.769531 147.410156 C 178.351562 147.578125 177.917969 147.703125 177.472656 147.785156 C 177.03125 147.867188 176.582031 147.910156 176.128906 147.902344 L 176.128906 118.644531 C 176.128906 108.542969 184.125 101.113281 195.160156 101.113281 C 197.554688 101.105469 199.867188 101.53125 202.097656 102.390625 C 204.328125 103.25 206.328125 104.480469 208.09375 106.089844 C 208.945312 106.882812 209.710938 107.757812 210.382812 108.707031 C 211.054688 109.660156 211.625 110.667969 212.089844 111.738281 C 212.550781 112.804688 212.902344 113.910156 213.136719 115.050781 C 213.371094 116.1875 213.484375 117.339844 213.480469 118.503906 C 213.566406 128.035156 205.527344 135.550781 195.214844 135.550781 Z M 195.214844 135.550781 "/></g><g clip-rule="nonzero" clip-path="url(#14368eeb67)"><path style=" stroke:none;fill-rule:nonzero;fill:#c8202f;fill-opacity:1;" d="M 244.917969 94.605469 L 230.011719 94.605469 L 230.011719 135.628906 L 229.6875 135.628906 C 229.242188 135.613281 228.800781 135.558594 228.367188 135.460938 C 227.929688 135.359375 227.507812 135.21875 227.101562 135.039062 C 226.695312 134.859375 226.308594 134.640625 225.941406 134.382812 C 225.578125 134.128906 225.242188 133.839844 224.933594 133.515625 C 224.625 133.195312 224.351562 132.847656 224.109375 132.472656 C 223.871094 132.097656 223.667969 131.703125 223.507812 131.289062 C 223.34375 130.875 223.226562 130.449219 223.144531 130.011719 C 223.066406 129.574219 223.03125 129.132812 223.039062 128.691406 L 223.039062 94.605469 L 208.09375 94.605469 C 207.644531 94.601562 207.199219 94.554688 206.761719 94.460938 C 206.320312 94.371094 205.894531 94.238281 205.480469 94.066406 C 205.070312 93.890625 204.675781 93.679688 204.304688 93.425781 C 203.933594 93.175781 203.589844 92.890625 203.277344 92.574219 C 202.960938 92.257812 202.679688 91.910156 202.433594 91.539062 C 202.1875 91.164062 201.980469 90.773438 201.808594 90.359375 C 201.640625 89.945312 201.511719 89.519531 201.429688 89.082031 C 201.34375 88.644531 201.300781 88.199219 201.304688 87.753906 L 251.800781 87.753906 C 251.800781 88.203125 251.757812 88.648438 251.667969 89.089844 C 251.578125 89.53125 251.449219 89.957031 251.273438 90.375 C 251.101562 90.789062 250.890625 91.183594 250.636719 91.558594 C 250.386719 91.929688 250.101562 92.277344 249.78125 92.59375 C 249.460938 92.914062 249.113281 93.199219 248.738281 93.449219 C 248.363281 93.695312 247.96875 93.910156 247.550781 94.082031 C 247.132812 94.253906 246.703125 94.382812 246.257812 94.472656 C 245.816406 94.558594 245.367188 94.605469 244.917969 94.605469 Z M 244.917969 94.605469 "/></g><g clip-rule="nonzero" clip-path="url(#33b05d7d66)"><path style=" stroke:none;fill-rule:nonzero;fill:#c8202f;fill-opacity:1;" d="M 304.5625 131.273438 L 300.867188 123.363281 L 276.136719 123.363281 L 272.472656 131.488281 C 270.738281 134.707031 266.15625 135.722656 262.632812 135.722656 L 282.804688 91.765625 C 283.019531 91.199219 283.308594 90.675781 283.675781 90.195312 C 284.046875 89.714844 284.476562 89.300781 284.964844 88.949219 C 285.457031 88.59375 285.992188 88.320312 286.566406 88.125 C 287.140625 87.929688 287.730469 87.820312 288.335938 87.796875 C 288.945312 87.820312 289.539062 87.929688 290.113281 88.125 C 290.691406 88.320312 291.226562 88.59375 291.722656 88.945312 C 292.21875 89.300781 292.65625 89.714844 293.027344 90.195312 C 293.402344 90.675781 293.699219 91.199219 293.917969 91.765625 L 313.863281 135.242188 C 310.101562 135.550781 306.03125 134.4375 304.5625 131.273438 Z M 289.101562 94.917969 L 279.207031 116.554688 L 297.894531 116.554688 L 287.9375 94.832031 Z M 289.101562 94.917969 "/></g><g clip-rule="nonzero" clip-path="url(#d08185b9d8)"><path style=" stroke:none;fill-rule:nonzero;fill:#c8202f;fill-opacity:1;" d="M 77.082031 100.675781 C 76.089844 99.636719 75.003906 98.710938 73.820312 97.894531 C 72.640625 97.078125 71.386719 96.386719 70.066406 95.824219 C 68.742188 95.257812 67.375 94.832031 65.964844 94.542969 C 64.558594 94.257812 63.132812 94.113281 61.695312 94.113281 C 50.917969 94.113281 42.089844 101.90625 42.089844 111.503906 C 42.089844 121.097656 50.886719 128.980469 61.695312 128.980469 C 64.207031 128.964844 66.640625 128.523438 69 127.65625 C 71.355469 126.789062 73.496094 125.546875 75.414062 123.929688 C 75.722656 123.683594 76.050781 123.460938 76.398438 123.273438 C 76.746094 123.082031 77.109375 122.921875 77.484375 122.792969 C 77.859375 122.664062 78.246094 122.570312 78.636719 122.507812 C 79.03125 122.449219 79.425781 122.421875 79.824219 122.429688 C 80.21875 122.4375 80.613281 122.476562 81.003906 122.554688 C 81.394531 122.628906 81.773438 122.738281 82.144531 122.878906 C 82.515625 123.019531 82.871094 123.191406 83.210938 123.398438 C 83.554688 123.601562 83.875 123.832031 84.171875 124.089844 C 82.203125 127.09375 79.691406 129.542969 76.628906 131.433594 C 74.394531 132.847656 72.003906 133.917969 69.460938 134.648438 C 66.917969 135.375 64.320312 135.734375 61.671875 135.722656 C 47.082031 135.722656 35.269531 124.875 35.269531 111.523438 C 35.269531 98.175781 47.125 87.335938 61.671875 87.335938 C 72.039062 87.335938 81.492188 92.964844 85.691406 101.628906 C 85.035156 102.0625 84.320312 102.375 83.550781 102.558594 C 82.777344 102.746094 82 102.796875 81.214844 102.707031 C 80.425781 102.621094 79.679688 102.402344 78.96875 102.054688 C 78.257812 101.703125 77.628906 101.242188 77.082031 100.675781 Z M 77.082031 100.675781 "/></g><path style=" stroke:none;fill-rule:nonzero;fill:#c8202f;fill-opacity:1;" d="M 316.492188 132.988281 C 316.066406 132.945312 315.664062 132.820312 315.285156 132.617188 C 314.90625 132.417969 314.578125 132.152344 314.304688 131.824219 C 314.027344 131.496094 313.824219 131.128906 313.691406 130.722656 C 313.558594 130.316406 313.507812 129.898438 313.539062 129.472656 C 313.570312 129.046875 313.679688 128.640625 313.867188 128.257812 C 314.054688 127.875 314.308594 127.539062 314.628906 127.253906 C 314.949219 126.964844 315.308594 126.75 315.714844 126.605469 C 316.117188 126.457031 316.535156 126.390625 316.960938 126.40625 C 317.390625 126.421875 317.804688 126.515625 318.195312 126.6875 C 318.589844 126.863281 318.933594 127.101562 319.234375 127.410156 C 319.53125 127.714844 319.761719 128.066406 319.925781 128.464844 C 320.085938 128.859375 320.167969 129.269531 320.167969 129.699219 C 320.140625 130.15625 320.027344 130.59375 319.828125 131.011719 C 319.628906 131.425781 319.355469 131.789062 319.011719 132.097656 C 318.667969 132.40625 318.277344 132.636719 317.839844 132.789062 C 317.40625 132.945312 316.957031 133.011719 316.492188 132.988281 Z M 316.492188 127.179688 C 316.132812 127.136719 315.777344 127.171875 315.425781 127.28125 C 315.078125 127.394531 314.769531 127.570312 314.496094 127.8125 C 314.226562 128.054688 314.015625 128.339844 313.863281 128.671875 C 313.714844 129.003906 313.640625 129.351562 313.640625 129.714844 C 313.640625 130.078125 313.714844 130.425781 313.863281 130.757812 C 314.015625 131.089844 314.226562 131.375 314.496094 131.617188 C 314.769531 131.859375 315.078125 132.035156 315.425781 132.144531 C 315.777344 132.257812 316.132812 132.289062 316.492188 132.25 C 316.863281 132.304688 317.226562 132.277344 317.585938 132.175781 C 317.945312 132.070312 318.265625 131.894531 318.550781 131.652344 C 318.832031 131.410156 319.050781 131.117188 319.207031 130.78125 C 319.363281 130.441406 319.441406 130.085938 319.441406 129.714844 C 319.441406 129.34375 319.363281 128.988281 319.207031 128.648438 C 319.050781 128.308594 318.832031 128.019531 318.550781 127.777344 C 318.265625 127.53125 317.945312 127.359375 317.585938 127.253906 C 317.226562 127.148438 316.863281 127.125 316.492188 127.179688 Z M 317.832031 130.007812 C 317.734375 130.074219 317.628906 130.125 317.515625 130.160156 L 318.433594 131.230469 L 318.292969 131.339844 C 318.148438 131.464844 317.980469 131.519531 317.789062 131.507812 C 317.597656 131.492188 317.441406 131.417969 317.3125 131.273438 C 316.558594 130.351562 316.472656 130.265625 316.472656 130.265625 L 315.621094 130.265625 L 315.621094 130 C 315.648438 129.828125 315.726562 129.683594 315.855469 129.570312 C 315.984375 129.453125 316.136719 129.394531 316.3125 129.386719 L 316.742188 129.386719 C 316.988281 129.40625 317.222656 129.355469 317.441406 129.238281 C 317.570312 129.238281 317.59375 129.085938 317.59375 128.949219 C 317.59375 128.808594 317.59375 128.5625 316.742188 128.5625 L 315.535156 128.5625 L 315.535156 130.824219 C 315.535156 131.015625 315.464844 131.179688 315.324219 131.3125 C 315.183594 131.445312 315.015625 131.507812 314.824219 131.5 L 314.660156 131.5 L 314.660156 128.28125 C 314.679688 128.105469 314.75 127.957031 314.878906 127.835938 C 315.007812 127.710938 315.164062 127.648438 315.339844 127.640625 L 316.699219 127.640625 C 318.28125 127.640625 318.433594 128.539062 318.433594 128.90625 C 318.449219 129.132812 318.402344 129.34375 318.292969 129.542969 C 318.183594 129.746094 318.03125 129.898438 317.832031 130.007812 Z M 317.832031 130.007812 "/><g clip-rule="nonzero" clip-path="url(#276ccf23d5)"><path style=" stroke:none;fill-rule:nonzero;fill:#c8202f;fill-opacity:1;" d="M 254.023438 87.765625 L 254.023438 128.914062 C 254.035156 129.363281 254.089844 129.804688 254.1875 130.238281 C 254.285156 130.675781 254.425781 131.097656 254.605469 131.507812 C 254.785156 131.917969 255.003906 132.304688 255.261719 132.671875 C 255.519531 133.039062 255.808594 133.378906 256.132812 133.6875 C 256.453125 134 256.804688 134.277344 257.179688 134.519531 C 257.558594 134.761719 257.953125 134.964844 258.371094 135.132812 C 258.789062 135.300781 259.21875 135.421875 259.660156 135.507812 C 260.101562 135.589844 260.546875 135.628906 260.996094 135.628906 L 260.996094 94.476562 C 260.984375 94.03125 260.929688 93.589844 260.828125 93.152344 C 260.730469 92.714844 260.59375 92.292969 260.410156 91.882812 C 260.230469 91.476562 260.011719 91.085938 259.753906 90.71875 C 259.5 90.351562 259.207031 90.015625 258.886719 89.703125 C 258.5625 89.394531 258.214844 89.117188 257.835938 88.875 C 257.460938 88.628906 257.0625 88.425781 256.644531 88.257812 C 256.230469 88.09375 255.800781 87.96875 255.359375 87.886719 C 254.917969 87.800781 254.472656 87.761719 254.023438 87.765625 Z M 254.023438 87.765625 "/></g></g></svg>