<svg xmlns="http://www.w3.org/2000/svg" xmlns:xlink="http://www.w3.org/1999/xlink" width="590" zoomAndPan="magnify" viewBox="0 0 442.5 137.249994" height="183" preserveAspectRatio="xMidYMid meet" version="1.2"><defs><clipPath id="2afa1ad7df"><path d="M 398 68 L 402.359375 68 L 402.359375 73 L 398 73 Z M 398 68 "/></clipPath><clipPath id="e7040a1a8d"><path d="M 97 29.382812 L 121 29.382812 L 121 54 L 97 54 Z M 97 29.382812 "/></clipPath><clipPath id="c08632f0ae"><path d="M 39.839844 43 L 104 43 L 104 106.960938 L 39.839844 106.960938 Z M 39.839844 43 "/></clipPath></defs><g id="2b2d319d3a"><path style=" stroke:none;fill-rule:nonzero;fill:#231f20;fill-opacity:1;" d="M 122.472656 82.101562 C 122.472656 74.519531 128.128906 68.347656 136.082031 68.347656 C 144.035156 68.347656 143.859375 69.9375 146.332031 72.402344 L 142.621094 76.636719 C 140.675781 74.871094 138.554688 73.636719 135.90625 73.636719 C 131.484375 73.636719 128.304688 77.339844 128.304688 81.75 C 128.304688 86.332031 131.308594 90.035156 135.90625 90.035156 C 140.5 90.035156 140.675781 88.800781 142.796875 87.039062 L 146.507812 90.738281 C 143.859375 93.5625 140.855469 95.5 135.90625 95.5 C 128.304688 95.5 122.648438 89.507812 122.648438 81.925781 Z M 122.472656 82.101562 "/><path style=" stroke:none;fill-rule:nonzero;fill:#231f20;fill-opacity:1;" d="M 151.105469 68.878906 L 156.761719 68.878906 L 156.761719 79.28125 L 167.367188 79.28125 L 167.367188 68.878906 L 173.023438 68.878906 L 173.023438 95.148438 L 167.367188 95.148438 L 167.367188 84.570312 L 156.761719 84.570312 L 156.761719 95.148438 L 151.105469 95.148438 Z M 151.105469 68.878906 "/><path style=" stroke:none;fill-rule:nonzero;fill:#231f20;fill-opacity:1;" d="M 179.914062 68.878906 L 199.535156 68.878906 L 199.535156 73.992188 L 185.570312 73.992188 L 185.570312 79.28125 L 197.765625 79.28125 L 197.765625 84.394531 L 185.570312 84.394531 L 185.570312 89.859375 L 199.710938 89.859375 L 199.710938 94.972656 L 179.914062 94.972656 L 179.914062 68.703125 Z M 179.914062 68.878906 "/><path style=" stroke:none;fill-rule:nonzero;fill:#231f20;fill-opacity:1;" d="M 203.777344 82.101562 C 203.777344 74.519531 209.433594 68.347656 217.386719 68.347656 C 225.339844 68.347656 225.164062 69.9375 227.636719 72.402344 L 223.925781 76.636719 C 221.980469 74.871094 219.859375 73.636719 217.210938 73.636719 C 212.789062 73.636719 209.609375 77.339844 209.609375 81.75 C 209.609375 86.332031 212.613281 90.035156 217.210938 90.035156 C 221.804688 90.035156 221.980469 88.800781 224.101562 87.039062 L 227.816406 90.738281 C 225.164062 93.5625 222.160156 95.5 217.210938 95.5 C 209.609375 95.5 203.953125 89.507812 203.953125 81.925781 Z M 203.777344 82.101562 "/><path style=" stroke:none;fill-rule:nonzero;fill:#231f20;fill-opacity:1;" d="M 232.234375 68.878906 L 237.890625 68.878906 L 237.890625 80.335938 L 248.496094 68.878906 L 255.386719 68.878906 L 244.78125 79.984375 L 255.917969 95.148438 L 249.023438 95.148438 L 240.894531 83.863281 L 237.890625 87.039062 L 237.890625 95.148438 L 232.234375 95.148438 Z M 232.234375 68.878906 "/><path style=" stroke:none;fill-rule:nonzero;fill:#231f20;fill-opacity:1;" d="M 271.117188 68.878906 L 281.722656 68.878906 C 287.910156 68.878906 291.621094 72.582031 291.621094 78.046875 C 291.621094 84.214844 287.027344 87.390625 281.015625 87.390625 L 276.597656 87.390625 L 276.597656 95.324219 L 270.941406 95.324219 L 270.941406 69.054688 Z M 281.371094 82.101562 C 284.199219 82.101562 285.964844 80.335938 285.964844 78.046875 C 285.964844 75.402344 284.199219 73.992188 281.371094 73.992188 L 276.953125 73.992188 L 276.953125 82.101562 L 281.546875 82.101562 Z M 281.371094 82.101562 "/><path style=" stroke:none;fill-rule:nonzero;fill:#231f20;fill-opacity:1;" d="M 295.332031 82.101562 C 295.332031 74.519531 301.167969 68.347656 309.121094 68.347656 C 317.074219 68.347656 322.90625 74.34375 322.90625 81.925781 C 322.90625 89.507812 317.074219 95.675781 309.121094 95.675781 C 301.167969 95.675781 295.332031 89.683594 295.332031 82.101562 Z M 317.074219 82.101562 C 317.074219 77.515625 313.890625 73.8125 309.121094 73.8125 C 304.347656 73.8125 301.34375 77.515625 301.34375 81.925781 C 301.34375 86.507812 304.523438 90.210938 309.296875 90.210938 C 314.070312 90.210938 317.074219 86.507812 317.074219 82.101562 Z M 317.074219 82.101562 "/><path style=" stroke:none;fill-rule:nonzero;fill:#231f20;fill-opacity:1;" d="M 328.5625 68.878906 L 334.21875 68.878906 L 334.21875 95.148438 L 328.5625 95.148438 Z M 328.5625 68.878906 "/><path style=" stroke:none;fill-rule:nonzero;fill:#231f20;fill-opacity:1;" d="M 341.464844 68.878906 L 346.769531 68.878906 L 358.964844 85.097656 L 358.964844 68.878906 L 364.621094 68.878906 L 364.621094 95.148438 L 359.671875 95.148438 L 347.121094 78.398438 L 347.121094 95.148438 L 341.464844 95.148438 Z M 341.464844 68.878906 "/><path style=" stroke:none;fill-rule:nonzero;fill:#231f20;fill-opacity:1;" d="M 377.523438 74.167969 L 369.570312 74.167969 L 369.570312 68.878906 L 391.132812 68.878906 L 391.132812 74.167969 L 383.179688 74.167969 L 383.179688 95.148438 L 377.523438 95.148438 Z M 377.523438 74.167969 "/><path style=" stroke:none;fill-rule:nonzero;fill:#231f20;fill-opacity:1;" d="M 396.609375 72.402344 L 395.902344 72.402344 L 395.902344 69.40625 L 394.84375 69.40625 L 394.84375 68.878906 L 397.671875 68.878906 L 397.671875 69.40625 L 396.609375 69.40625 Z M 396.609375 72.402344 "/><g clip-rule="nonzero" clip-path="url(#2afa1ad7df)"><path style=" stroke:none;fill-rule:nonzero;fill:#231f20;fill-opacity:1;" d="M 400.5 71.523438 L 399.4375 69.757812 L 399.4375 72.402344 L 398.730469 72.402344 L 398.730469 68.703125 L 399.4375 68.703125 L 400.5 70.464844 L 401.558594 68.703125 L 402.265625 68.703125 L 402.265625 72.402344 L 401.738281 72.402344 L 401.738281 69.757812 L 400.675781 71.523438 Z M 400.5 71.523438 "/></g><g clip-rule="nonzero" clip-path="url(#e7040a1a8d)"><path style=" stroke:none;fill-rule:nonzero;fill:#231f20;fill-opacity:1;" d="M 118.054688 49.132812 C 113.988281 54.242188 106.5625 55.125 101.4375 50.894531 C 96.3125 46.839844 95.605469 39.257812 99.671875 34.144531 C 103.734375 29.03125 111.160156 28.148438 116.285156 32.382812 C 121.410156 36.4375 122.117188 44.019531 118.054688 49.132812 Z M 118.054688 49.132812 "/></g><g clip-rule="nonzero" clip-path="url(#c08632f0ae)"><path style=" stroke:none;fill-rule:nonzero;fill:#ee0c5d;fill-opacity:1;" d="M 102.144531 67.644531 C 98.964844 69.230469 94.898438 69.054688 91.539062 67.289062 L 82.347656 79.808594 C 83.585938 81.21875 84.117188 82.804688 84.292969 84.570312 C 84.292969 86.15625 83.941406 87.742188 83.054688 89.152344 C 80.757812 92.855469 75.984375 93.914062 72.273438 91.445312 C 71.921875 91.269531 71.566406 90.917969 71.214844 90.5625 C 71.214844 90.5625 71.039062 90.386719 70.859375 90.210938 C 70.683594 90.035156 70.507812 89.683594 70.332031 89.507812 C 70.332031 89.507812 70.332031 89.328125 70.152344 89.152344 C 69.976562 88.800781 69.800781 88.449219 69.625 88.09375 C 69.625 88.09375 69.625 87.917969 69.625 87.742188 C 69.625 87.390625 69.445312 87.214844 69.269531 86.859375 C 69.269531 86.859375 69.269531 86.683594 69.269531 86.507812 C 69.269531 86.15625 69.269531 85.804688 69.09375 85.273438 L 69.09375 84.921875 C 69.09375 84.570312 69.09375 84.214844 69.09375 83.863281 C 69.09375 83.160156 69.09375 82.804688 69.269531 82.453125 C 69.269531 82.453125 69.269531 82.277344 69.269531 82.101562 C 69.269531 81.75 69.625 81.21875 69.800781 80.867188 L 62.375 75.226562 L 60.078125 78.398438 L 51.59375 71.875 L 57.957031 63.234375 L 66.441406 69.757812 L 64.144531 72.933594 L 71.746094 78.75 C 74.042969 76.8125 77.398438 76.28125 80.226562 77.871094 L 89.417969 65.527344 C 85.707031 61.824219 84.824219 56.007812 87.476562 51.246094 C 88.003906 50.363281 88.710938 49.484375 89.417969 48.777344 C 84.46875 45.253906 78.285156 43.3125 71.746094 43.3125 C 54.070312 43.136719 39.929688 57.417969 39.929688 75.046875 C 39.929688 92.679688 53.890625 106.960938 71.390625 106.960938 C 88.710938 106.960938 102.851562 92.855469 103.027344 75.226562 C 103.027344 72.582031 102.675781 70.113281 102.144531 67.820312 Z M 102.144531 67.644531 "/></g></g></svg>