<svg xmlns="http://www.w3.org/2000/svg" xmlns:xlink="http://www.w3.org/1999/xlink" width="590" zoomAndPan="magnify" viewBox="0 0 442.5 137.249994" height="183" preserveAspectRatio="xMidYMid meet" version="1.2"><defs><clipPath id="62c714884c"><path d="M 219 47 L 267 47 L 267 107.140625 L 219 107.140625 Z M 219 47 "/></clipPath><clipPath id="89811b6711"><path d="M 39 29.566406 L 105 29.566406 L 105 92 L 39 92 Z M 39 29.566406 "/></clipPath></defs><g id="75eae3b4f5"><path style=" stroke:none;fill-rule:nonzero;fill:#c8202f;fill-opacity:1;" d="M 127.402344 91.457031 C 113.699219 91.457031 103.039062 81.839844 103.039062 69.480469 C 103.039062 57.117188 113.738281 47.367188 127.402344 47.367188 C 141.0625 47.367188 151.765625 57.105469 151.765625 69.480469 C 151.765625 81.855469 141.050781 91.457031 127.402344 91.457031 Z M 127.402344 56.210938 C 118.726562 56.210938 111.890625 62.019531 111.890625 69.4375 C 111.890625 76.855469 118.742188 82.570312 127.402344 82.570312 C 136.0625 82.570312 142.898438 76.839844 142.898438 69.4375 C 142.898438 62.035156 136.046875 56.210938 127.402344 56.210938 Z M 127.402344 56.210938 "/><path style=" stroke:none;fill-rule:nonzero;fill:#c8202f;fill-opacity:1;" d="M 214.527344 91.457031 C 213.9375 91.449219 213.355469 91.386719 212.777344 91.265625 C 212.203125 91.144531 211.644531 90.96875 211.101562 90.734375 C 210.5625 90.503906 210.046875 90.222656 209.5625 89.890625 C 209.074219 89.554688 208.625 89.179688 208.214844 88.757812 C 207.800781 88.335938 207.433594 87.878906 207.109375 87.386719 C 206.789062 86.890625 206.519531 86.371094 206.296875 85.824219 C 206.078125 85.277344 205.914062 84.710938 205.804688 84.132812 C 205.695312 83.550781 205.640625 82.96875 205.648438 82.375 L 205.648438 64.082031 C 205.609375 63.550781 205.523438 63.027344 205.390625 62.515625 C 205.253906 62 205.074219 61.503906 204.84375 61.023438 C 204.617188 60.542969 204.34375 60.089844 204.03125 59.660156 C 203.71875 59.234375 203.367188 58.835938 202.980469 58.472656 C 202.589844 58.113281 202.171875 57.789062 201.726562 57.503906 C 201.277344 57.222656 200.804688 56.980469 200.3125 56.789062 C 199.816406 56.59375 199.3125 56.445312 198.789062 56.347656 C 198.269531 56.246094 197.742188 56.199219 197.210938 56.199219 C 196.683594 56.199219 196.15625 56.246094 195.636719 56.347656 C 195.113281 56.445312 194.605469 56.59375 194.113281 56.789062 C 193.621094 56.980469 193.148438 57.222656 192.699219 57.503906 C 192.253906 57.789062 191.835938 58.113281 191.445312 58.472656 C 191.058594 58.835938 190.707031 59.234375 190.394531 59.660156 C 190.082031 60.089844 189.808594 60.542969 189.582031 61.023438 C 189.351562 61.503906 189.171875 62 189.035156 62.515625 C 188.902344 63.027344 188.816406 63.550781 188.777344 64.082031 L 188.777344 91.457031 C 188.195312 91.457031 187.621094 91.402344 187.050781 91.289062 C 186.476562 91.175781 185.921875 91.007812 185.386719 90.78125 C 184.847656 90.558594 184.335938 90.285156 183.851562 89.960938 C 183.367188 89.636719 182.921875 89.269531 182.511719 88.855469 C 182.097656 88.441406 181.730469 87.992188 181.410156 87.507812 C 181.085938 87.023438 180.8125 86.511719 180.59375 85.972656 C 180.371094 85.429688 180.203125 84.875 180.089844 84.304688 C 179.980469 83.730469 179.925781 83.152344 179.925781 82.570312 L 179.925781 64.082031 C 179.882812 63.554688 179.792969 63.035156 179.652344 62.523438 C 179.515625 62.011719 179.328125 61.519531 179.097656 61.042969 C 178.867188 60.566406 178.59375 60.117188 178.277344 59.691406 C 177.964844 59.265625 177.613281 58.875 177.222656 58.515625 C 176.835938 58.15625 176.417969 57.835938 175.96875 57.554688 C 175.519531 57.277344 175.050781 57.039062 174.558594 56.847656 C 174.066406 56.652344 173.5625 56.507812 173.042969 56.410156 C 172.523438 56.3125 172 56.261719 171.472656 56.261719 C 170.941406 56.261719 170.417969 56.3125 169.898438 56.410156 C 169.382812 56.507812 168.875 56.652344 168.382812 56.847656 C 167.890625 57.039062 167.421875 57.277344 166.972656 57.554688 C 166.527344 57.835938 166.109375 58.15625 165.71875 58.515625 C 165.332031 58.875 164.980469 59.265625 164.664062 59.691406 C 164.347656 60.117188 164.074219 60.566406 163.84375 61.042969 C 163.613281 61.519531 163.429688 62.011719 163.289062 62.523438 C 163.148438 63.035156 163.058594 63.554688 163.015625 64.082031 L 163.015625 82.472656 C 163.015625 83.058594 162.957031 83.636719 162.84375 84.210938 C 162.730469 84.785156 162.5625 85.34375 162.339844 85.882812 C 162.121094 86.425781 161.847656 86.9375 161.523438 87.425781 C 161.203125 87.914062 160.835938 88.367188 160.425781 88.78125 C 160.015625 89.199219 159.570312 89.570312 159.085938 89.898438 C 158.605469 90.230469 158.09375 90.507812 157.558594 90.738281 C 157.019531 90.964844 156.46875 91.140625 155.894531 91.261719 C 155.324219 91.382812 154.746094 91.449219 154.164062 91.457031 L 154.164062 64.082031 C 154.171875 63.523438 154.207031 62.96875 154.269531 62.414062 C 154.335938 61.859375 154.425781 61.308594 154.542969 60.765625 C 154.65625 60.21875 154.800781 59.679688 154.972656 59.148438 C 155.140625 58.617188 155.335938 58.097656 155.558594 57.585938 C 155.777344 57.074219 156.023438 56.574219 156.292969 56.085938 C 156.5625 55.597656 156.855469 55.125 157.171875 54.667969 C 157.488281 54.207031 157.828125 53.765625 158.1875 53.339844 C 158.546875 52.914062 158.925781 52.507812 159.324219 52.121094 C 159.726562 51.730469 160.144531 51.363281 160.578125 51.015625 C 161.015625 50.667969 161.464844 50.34375 161.933594 50.042969 C 162.402344 49.738281 162.882812 49.460938 163.375 49.207031 C 163.871094 48.949219 164.378906 48.722656 164.894531 48.515625 C 165.414062 48.3125 165.9375 48.132812 166.472656 47.976562 C 167.007812 47.824219 167.550781 47.699219 168.097656 47.597656 C 168.644531 47.5 169.195312 47.425781 169.75 47.378906 C 170.304688 47.335938 170.859375 47.316406 171.417969 47.324219 C 172.625 47.308594 173.820312 47.417969 175.007812 47.648438 C 176.191406 47.882812 177.34375 48.238281 178.453125 48.710938 C 179.566406 49.183594 180.617188 49.765625 181.609375 50.457031 C 182.601562 51.148438 183.511719 51.9375 184.339844 52.820312 C 185.160156 51.941406 186.058594 51.160156 187.042969 50.46875 C 188.023438 49.78125 189.066406 49.199219 190.171875 48.726562 C 191.273438 48.253906 192.414062 47.898438 193.589844 47.664062 C 194.765625 47.425781 195.953125 47.3125 197.152344 47.324219 C 197.710938 47.3125 198.265625 47.328125 198.824219 47.375 C 199.382812 47.417969 199.933594 47.488281 200.484375 47.585938 C 201.035156 47.683594 201.578125 47.808594 202.117188 47.960938 C 202.652344 48.113281 203.183594 48.289062 203.703125 48.496094 C 204.222656 48.699219 204.730469 48.929688 205.230469 49.183594 C 205.726562 49.4375 206.210938 49.714844 206.679688 50.015625 C 207.152344 50.316406 207.605469 50.640625 208.042969 50.988281 C 208.484375 51.335938 208.902344 51.703125 209.304688 52.089844 C 209.707031 52.480469 210.089844 52.886719 210.453125 53.3125 C 210.816406 53.738281 211.15625 54.179688 211.476562 54.640625 C 211.796875 55.101562 212.089844 55.574219 212.363281 56.0625 C 212.636719 56.550781 212.882812 57.050781 213.109375 57.566406 C 213.332031 58.078125 213.527344 58.601562 213.699219 59.132812 C 213.875 59.667969 214.019531 60.207031 214.136719 60.753906 C 214.257812 61.300781 214.347656 61.851562 214.414062 62.40625 C 214.480469 62.964844 214.515625 63.523438 214.527344 64.082031 Z M 214.527344 91.457031 "/><g clip-rule="nonzero" clip-path="url(#62c714884c)"><path style=" stroke:none;fill-rule:nonzero;fill:#c8202f;fill-opacity:1;" d="M 243.304688 91.359375 C 241.089844 91.386719 238.902344 91.164062 236.738281 90.699219 C 236.191406 90.542969 235.667969 90.332031 235.160156 90.074219 C 234.65625 89.8125 234.179688 89.507812 233.730469 89.152344 C 233.285156 88.800781 232.875 88.40625 232.503906 87.976562 C 232.136719 87.542969 231.808594 87.078125 231.527344 86.582031 C 231.246094 86.085938 231.015625 85.570312 230.835938 85.027344 C 230.65625 84.488281 230.527344 83.933594 230.453125 83.367188 C 230.378906 82.804688 230.363281 82.238281 230.398438 81.667969 C 230.433594 81.097656 230.523438 80.539062 230.667969 79.988281 C 230.816406 79.445312 231.003906 78.917969 231.230469 78.40625 L 231.230469 78.324219 C 233.710938 81.070312 237.792969 82.445312 243.234375 82.445312 C 251.332031 82.445312 257.71875 76.703125 257.71875 69.492188 C 257.71875 61.992188 251.332031 56.101562 243.234375 56.101562 C 235.535156 56.101562 227.914062 60.332031 227.914062 69.671875 L 227.914062 98.515625 C 227.90625 99.09375 227.839844 99.660156 227.71875 100.226562 C 227.597656 100.789062 227.421875 101.335938 227.195312 101.863281 C 226.964844 102.390625 226.6875 102.894531 226.363281 103.367188 C 226.035156 103.84375 225.667969 104.28125 225.257812 104.683594 C 224.84375 105.085938 224.398438 105.441406 223.914062 105.757812 C 223.433594 106.070312 222.925781 106.335938 222.390625 106.550781 C 221.859375 106.765625 221.308594 106.925781 220.746094 107.03125 C 220.179688 107.136719 219.609375 107.1875 219.035156 107.183594 L 219.035156 69.699219 C 219.035156 56.761719 229.203125 47.242188 243.234375 47.242188 C 244.742188 47.238281 246.238281 47.371094 247.722656 47.648438 C 249.203125 47.921875 250.648438 48.332031 252.054688 48.878906 C 253.460938 49.421875 254.804688 50.09375 256.085938 50.890625 C 257.371094 51.6875 258.566406 52.59375 259.679688 53.617188 C 260.765625 54.632812 261.734375 55.753906 262.589844 56.972656 C 263.445312 58.191406 264.167969 59.484375 264.757812 60.851562 C 265.347656 62.21875 265.792969 63.632812 266.089844 65.09375 C 266.390625 66.554688 266.535156 68.03125 266.53125 69.519531 C 266.640625 81.730469 256.417969 91.359375 243.304688 91.359375 Z M 243.304688 91.359375 "/></g><path style=" stroke:none;fill-rule:nonzero;fill:#c8202f;fill-opacity:1;" d="M 306.503906 38.90625 L 287.550781 38.90625 L 287.550781 91.457031 L 287.140625 91.457031 C 286.574219 91.4375 286.011719 91.367188 285.457031 91.242188 C 284.90625 91.113281 284.367188 90.933594 283.851562 90.703125 C 283.332031 90.46875 282.839844 90.191406 282.375 89.863281 C 281.910156 89.535156 281.484375 89.164062 281.09375 88.753906 C 280.699219 88.339844 280.351562 87.894531 280.046875 87.414062 C 279.742188 86.933594 279.484375 86.429688 279.28125 85.898438 C 279.074219 85.367188 278.921875 84.824219 278.820312 84.261719 C 278.71875 83.703125 278.675781 83.136719 278.683594 82.570312 L 278.683594 38.90625 L 259.679688 38.90625 C 259.109375 38.898438 258.542969 38.839844 257.984375 38.722656 C 257.425781 38.605469 256.886719 38.4375 256.359375 38.210938 C 255.835938 37.988281 255.335938 37.71875 254.863281 37.394531 C 254.390625 37.074219 253.957031 36.710938 253.554688 36.304688 C 253.15625 35.894531 252.796875 35.453125 252.484375 34.976562 C 252.167969 34.5 251.90625 33.996094 251.691406 33.464844 C 251.472656 32.933594 251.3125 32.390625 251.203125 31.828125 C 251.097656 31.265625 251.042969 30.699219 251.046875 30.128906 L 315.257812 30.128906 C 315.257812 30.703125 315.203125 31.273438 315.089844 31.839844 C 314.976562 32.40625 314.808594 32.953125 314.589844 33.484375 C 314.367188 34.015625 314.097656 34.523438 313.78125 35 C 313.460938 35.480469 313.097656 35.921875 312.691406 36.332031 C 312.285156 36.738281 311.84375 37.101562 311.363281 37.421875 C 310.886719 37.742188 310.382812 38.011719 309.851562 38.234375 C 309.320312 38.453125 308.773438 38.621094 308.210938 38.734375 C 307.648438 38.847656 307.078125 38.902344 306.503906 38.90625 Z M 306.503906 38.90625 "/><path style=" stroke:none;fill-rule:nonzero;fill:#c8202f;fill-opacity:1;" d="M 382.351562 85.878906 L 377.648438 75.742188 L 346.199219 75.742188 L 341.542969 86.152344 C 339.335938 90.273438 333.511719 91.578125 329.03125 91.578125 L 354.683594 35.265625 C 354.953125 34.542969 355.324219 33.871094 355.789062 33.257812 C 356.257812 32.644531 356.804688 32.109375 357.429688 31.65625 C 358.054688 31.207031 358.734375 30.855469 359.464844 30.601562 C 360.191406 30.351562 360.941406 30.210938 361.714844 30.183594 C 362.488281 30.210938 363.242188 30.351562 363.976562 30.601562 C 364.710938 30.855469 365.390625 31.203125 366.023438 31.65625 C 366.652344 32.109375 367.207031 32.640625 367.679688 33.253906 C 368.15625 33.871094 368.53125 34.539062 368.8125 35.265625 L 394.175781 90.960938 C 389.394531 91.359375 384.214844 89.929688 382.351562 85.878906 Z M 362.6875 39.304688 L 350.105469 67.019531 L 373.867188 67.019531 L 361.207031 39.195312 Z M 362.6875 39.304688 "/><g clip-rule="nonzero" clip-path="url(#89811b6711)"><path style=" stroke:none;fill-rule:nonzero;fill:#c8202f;fill-opacity:1;" d="M 93.089844 46.679688 C 91.828125 45.351562 90.445312 44.164062 88.941406 43.117188 C 87.4375 42.070312 85.847656 41.1875 84.164062 40.464844 C 82.484375 39.742188 80.746094 39.195312 78.953125 38.828125 C 77.160156 38.457031 75.351562 38.273438 73.519531 38.273438 C 59.816406 38.273438 48.59375 48.257812 48.59375 60.550781 C 48.59375 72.84375 59.777344 82.941406 73.519531 82.941406 C 76.714844 82.921875 79.8125 82.355469 82.808594 81.242188 C 85.808594 80.132812 88.527344 78.539062 90.964844 76.472656 C 91.359375 76.152344 91.777344 75.871094 92.21875 75.628906 C 92.660156 75.382812 93.121094 75.179688 93.601562 75.015625 C 94.078125 74.851562 94.566406 74.730469 95.066406 74.652344 C 95.566406 74.574219 96.066406 74.539062 96.574219 74.546875 C 97.078125 74.558594 97.578125 74.609375 98.074219 74.707031 C 98.570312 74.804688 99.054688 74.941406 99.527344 75.125 C 99.996094 75.304688 100.449219 75.527344 100.882812 75.789062 C 101.316406 76.046875 101.722656 76.34375 102.105469 76.675781 C 99.601562 80.523438 96.40625 83.660156 92.511719 86.085938 C 89.671875 87.894531 86.632812 89.265625 83.398438 90.199219 C 80.160156 91.132812 76.859375 91.59375 73.492188 91.578125 C 54.9375 91.578125 39.921875 77.679688 39.921875 60.578125 C 39.921875 43.480469 54.992188 29.59375 73.492188 29.59375 C 86.675781 29.59375 98.695312 36.804688 104.039062 47.902344 C 103.621094 48.179688 103.183594 48.417969 102.726562 48.617188 C 102.269531 48.820312 101.796875 48.976562 101.3125 49.097656 C 100.824219 49.214844 100.332031 49.289062 99.835938 49.320312 C 99.335938 49.351562 98.839844 49.339844 98.339844 49.285156 C 97.84375 49.230469 97.355469 49.132812 96.878906 48.992188 C 96.398438 48.847656 95.933594 48.667969 95.488281 48.445312 C 95.039062 48.222656 94.613281 47.964844 94.210938 47.667969 C 93.808594 47.371094 93.433594 47.042969 93.089844 46.679688 Z M 93.089844 46.679688 "/></g><path style=" stroke:none;fill-rule:nonzero;fill:#c8202f;fill-opacity:1;" d="M 397.519531 88.078125 C 396.976562 88.019531 396.464844 87.859375 395.980469 87.601562 C 395.5 87.34375 395.085938 87.003906 394.734375 86.585938 C 394.382812 86.164062 394.125 85.695312 393.957031 85.171875 C 393.789062 84.652344 393.722656 84.117188 393.761719 83.570312 C 393.800781 83.027344 393.941406 82.507812 394.179688 82.015625 C 394.417969 81.523438 394.742188 81.09375 395.148438 80.726562 C 395.554688 80.359375 396.011719 80.082031 396.527344 79.894531 C 397.039062 79.707031 397.570312 79.625 398.117188 79.644531 C 398.660156 79.660156 399.183594 79.78125 399.683594 80.003906 C 400.183594 80.226562 400.621094 80.535156 401.003906 80.925781 C 401.382812 81.320312 401.675781 81.769531 401.882812 82.277344 C 402.085938 82.785156 402.191406 83.3125 402.191406 83.859375 C 402.175781 84.152344 402.132812 84.4375 402.058594 84.722656 C 401.984375 85.003906 401.886719 85.277344 401.761719 85.542969 C 401.632812 85.804688 401.484375 86.054688 401.308594 86.289062 C 401.132812 86.523438 400.9375 86.738281 400.722656 86.933594 C 400.503906 87.128906 400.269531 87.300781 400.019531 87.449219 C 399.769531 87.601562 399.507812 87.722656 399.234375 87.820312 C 398.957031 87.921875 398.675781 87.992188 398.390625 88.035156 C 398.101562 88.078125 397.8125 88.089844 397.519531 88.078125 Z M 397.519531 80.632812 C 397.292969 80.605469 397.0625 80.605469 396.835938 80.628906 C 396.605469 80.648438 396.382812 80.695312 396.164062 80.765625 C 395.945312 80.835938 395.734375 80.929688 395.535156 81.042969 C 395.335938 81.15625 395.152344 81.289062 394.980469 81.441406 C 394.808594 81.597656 394.65625 81.765625 394.519531 81.953125 C 394.386719 82.136719 394.269531 82.335938 394.175781 82.546875 C 394.082031 82.753906 394.011719 82.972656 393.964844 83.199219 C 393.917969 83.421875 393.894531 83.652344 393.894531 83.882812 C 393.894531 84.109375 393.917969 84.339844 393.964844 84.5625 C 394.011719 84.789062 394.082031 85.007812 394.175781 85.214844 C 394.269531 85.425781 394.386719 85.625 394.519531 85.808594 C 394.65625 85.996094 394.808594 86.164062 394.980469 86.320312 C 395.152344 86.472656 395.335938 86.605469 395.535156 86.71875 C 395.734375 86.832031 395.945312 86.925781 396.164062 86.996094 C 396.382812 87.066406 396.605469 87.113281 396.835938 87.132812 C 397.0625 87.15625 397.292969 87.15625 397.519531 87.128906 C 397.753906 87.164062 397.984375 87.171875 398.21875 87.15625 C 398.453125 87.140625 398.683594 87.097656 398.910156 87.03125 C 399.136719 86.964844 399.351562 86.875 399.558594 86.765625 C 399.765625 86.652344 399.957031 86.519531 400.132812 86.363281 C 400.3125 86.210938 400.472656 86.039062 400.613281 85.851562 C 400.753906 85.660156 400.871094 85.460938 400.96875 85.246094 C 401.066406 85.03125 401.140625 84.808594 401.191406 84.578125 C 401.242188 84.347656 401.265625 84.117188 401.265625 83.882812 C 401.265625 83.644531 401.242188 83.414062 401.191406 83.183594 C 401.140625 82.953125 401.066406 82.730469 400.96875 82.515625 C 400.871094 82.300781 400.753906 82.101562 400.613281 81.910156 C 400.472656 81.722656 400.3125 81.550781 400.132812 81.398438 C 399.957031 81.242188 399.765625 81.109375 399.558594 80.996094 C 399.351562 80.886719 399.136719 80.796875 398.910156 80.730469 C 398.683594 80.664062 398.453125 80.621094 398.21875 80.605469 C 397.984375 80.589844 397.753906 80.597656 397.519531 80.632812 Z M 399.21875 84.257812 C 399.09375 84.34375 398.964844 84.40625 398.820312 84.449219 L 399.984375 85.824219 L 399.808594 85.960938 C 399.625 86.121094 399.410156 86.191406 399.167969 86.175781 C 398.925781 86.160156 398.722656 86.0625 398.5625 85.878906 C 397.601562 84.699219 397.492188 84.589844 397.492188 84.589844 L 396.410156 84.589844 L 396.410156 84.246094 C 396.441406 84.027344 396.542969 83.84375 396.707031 83.695312 C 396.871094 83.546875 397.066406 83.46875 397.285156 83.460938 L 397.835938 83.460938 C 398.152344 83.484375 398.449219 83.421875 398.726562 83.269531 C 398.890625 83.269531 398.917969 83.078125 398.917969 82.898438 C 398.917969 82.71875 398.917969 82.40625 397.835938 82.40625 L 396.300781 82.40625 L 396.300781 85.300781 C 396.300781 85.421875 396.277344 85.535156 396.230469 85.644531 C 396.183594 85.753906 396.117188 85.847656 396.03125 85.929688 C 395.949219 86.011719 395.847656 86.074219 395.738281 86.113281 C 395.628906 86.15625 395.511719 86.171875 395.394531 86.167969 L 395.191406 86.167969 L 395.191406 82.046875 C 395.210938 81.820312 395.304688 81.628906 395.46875 81.472656 C 395.632812 81.316406 395.828125 81.234375 396.054688 81.222656 L 397.78125 81.222656 C 399.792969 81.222656 399.984375 82.375 399.984375 82.84375 C 400.007812 83.132812 399.945312 83.40625 399.808594 83.664062 C 399.667969 83.917969 399.472656 84.117188 399.21875 84.257812 Z M 399.21875 84.257812 "/><path style=" stroke:none;fill-rule:nonzero;fill:#c8202f;fill-opacity:1;" d="M 318.082031 30.140625 L 318.082031 82.859375 C 318.097656 83.429688 318.167969 83.996094 318.292969 84.554688 C 318.417969 85.113281 318.59375 85.652344 318.824219 86.179688 C 319.054688 86.703125 319.332031 87.199219 319.65625 87.667969 C 319.984375 88.140625 320.351562 88.574219 320.761719 88.972656 C 321.175781 89.371094 321.617188 89.722656 322.097656 90.035156 C 322.578125 90.347656 323.082031 90.609375 323.613281 90.820312 C 324.140625 91.035156 324.6875 91.195312 325.25 91.300781 C 325.8125 91.40625 326.375 91.460938 326.949219 91.457031 L 326.949219 38.742188 C 326.933594 38.167969 326.863281 37.601562 326.738281 37.042969 C 326.613281 36.484375 326.4375 35.945312 326.207031 35.417969 C 325.976562 34.894531 325.699219 34.398438 325.371094 33.929688 C 325.046875 33.457031 324.675781 33.023438 324.265625 32.625 C 323.855469 32.226562 323.410156 31.875 322.933594 31.5625 C 322.453125 31.25 321.949219 30.988281 321.417969 30.777344 C 320.886719 30.5625 320.34375 30.402344 319.78125 30.296875 C 319.21875 30.191406 318.652344 30.136719 318.082031 30.140625 Z M 318.082031 30.140625 "/></g></svg>